<svg width="256" height="256" viewBox="0 0 256 256" fill="none" xmlns="http://www.w3.org/2000/svg">
<g clip-path="url(#clip0_21_53)">
<path d="M204.907 28.4445H219.1V35.5556H204.907V28.4445Z" fill="#66757F"/>
<path d="M14.2222 85.3334V227.556C14.2222 235.1 17.219 242.334 22.5534 247.669C27.8878 253.003 35.1227 256 42.6667 256H213.333C220.877 256 228.112 253.003 233.447 247.669C238.781 242.334 241.778 235.1 241.778 227.556V85.3334H14.2222Z" fill="#CCD6DD"/>
<path d="M213.333 28.4445H42.6667C35.1227 28.4445 27.8878 31.4413 22.5534 36.7756C17.219 42.11 14.2222 49.345 14.2222 56.8889V92.4445H241.778V56.8889C241.778 49.345 238.781 42.11 233.447 36.7756C228.112 31.4413 220.877 28.4445 213.333 28.4445Z" fill="#DD2E44"/>
<path d="M62.8338 62.0872C57.8418 62.0872 53.7955 57.3512 53.7955 51.4987C53.7955 45.6534 57.8418 40.9103 62.8338 40.9103C67.8186 40.9103 71.8649 45.6534 71.8649 51.4987C71.8649 57.3441 67.8186 62.0872 62.8338 62.0872ZM105.5 62.0872C100.508 62.0872 96.4622 57.3512 96.4622 51.4987C96.4622 45.6534 100.508 40.9103 105.5 40.9103C110.485 40.9103 114.532 45.6534 114.532 51.4987C114.532 57.3441 110.485 62.0872 105.5 62.0872ZM148.167 62.0872C143.175 62.0872 139.129 57.3512 139.129 51.4987C139.129 45.6534 143.175 40.9103 148.167 40.9103C153.152 40.9103 157.205 45.6534 157.205 51.4987C157.198 57.3441 153.152 62.0872 148.167 62.0872ZM190.834 62.0872C185.842 62.0872 181.796 57.3512 181.796 51.4987C181.796 45.6534 185.842 40.9103 190.834 40.9103C195.819 40.9103 199.872 45.6534 199.872 51.4987C199.865 57.3441 195.819 62.0872 190.834 62.0872Z" fill="#292F33"/>
<path d="M194.24 1.27295C185.159 1.27295 177.294 6.97606 172.949 15.2818C168.64 7.15384 160.74 1.27295 151.573 1.27295C142.492 1.27295 134.628 6.97606 130.283 15.2818C125.973 7.15384 118.073 1.27295 108.907 1.27295C99.8258 1.27295 91.9609 6.97606 87.616 15.2818C83.3067 7.15384 75.4062 1.27295 66.24 1.27295C52.4871 1.27295 41.3511 14.2081 41.3511 29.753C41.3511 42.937 48.7822 53.7245 59.6195 57.6712C65.0169 59.6267 68.3235 54.4925 67.8613 50.3752C67.4702 46.9618 65.2018 44.7361 62.6773 43.1361C59.2284 40.9529 55.5662 35.9681 55.5662 29.7885C55.5662 21.9378 60.3378 14.8907 66.2329 14.8907C72.128 14.8907 76.8995 21.3263 76.8995 28.4374H84.1244C84.1031 28.8783 84.0107 29.2978 84.0107 29.7458C84.0107 42.9298 91.4418 53.7174 102.279 57.6641C107.676 59.6196 110.983 54.4854 110.521 50.3681C110.13 46.9618 107.861 44.7361 105.337 43.1361C101.888 40.9529 98.2258 35.9681 98.2258 29.7885C98.2258 21.9378 102.997 14.8907 108.892 14.8907C114.788 14.8907 119.573 21.3334 119.573 28.4445H126.798C126.777 28.8854 126.684 29.305 126.684 29.753C126.684 42.937 134.116 53.7245 144.953 57.6712C150.35 59.6267 153.657 54.4925 153.195 50.3752C152.804 46.969 150.535 44.7432 148.011 43.1432C144.562 40.9601 140.9 35.9752 140.9 29.7956C140.9 21.945 145.671 14.8978 151.566 14.8978C157.461 14.8978 162.24 21.3334 162.24 28.4445H169.465C169.444 28.8854 169.351 29.305 169.351 29.753C169.351 42.937 176.782 53.7245 187.62 57.6712C193.017 59.6267 196.324 54.4925 195.861 50.3752C195.47 46.969 193.202 44.7432 190.677 43.1432C187.228 40.9601 183.566 35.9752 183.566 29.7956C183.566 21.945 188.338 14.8978 194.233 14.8978C200.128 14.8978 204.907 21.3334 204.907 28.4445H219.1C218.951 14.2223 207.893 1.27295 194.24 1.27295Z" fill="#66757F"/>
<path d="M78.2222 106.667H106.667V135.111H78.2222V106.667ZM113.778 106.667H142.222V135.111H113.778V106.667ZM149.333 106.667H177.778V135.111H149.333V106.667ZM184.889 106.667H213.333V135.111H184.889V106.667ZM42.6667 142.222H71.1111V170.667H42.6667V142.222ZM78.2222 142.222H106.667V170.667H78.2222V142.222ZM113.778 142.222H142.222V170.667H113.778V142.222ZM149.333 142.222H177.778V170.667H149.333V142.222ZM184.889 142.222H213.333V170.667H184.889V142.222ZM42.6667 177.778H71.1111V206.222H42.6667V177.778ZM78.2222 177.778H106.667V206.222H78.2222V177.778ZM113.778 177.778H142.222V206.222H113.778V177.778ZM149.333 177.778H177.778V206.222H149.333V177.778ZM184.889 177.778H213.333V206.222H184.889V177.778ZM42.6667 213.333H71.1111V241.778H42.6667V213.333ZM78.2222 213.333H106.667V241.778H78.2222V213.333ZM113.778 213.333H142.222V241.778H113.778V213.333Z" fill="white"/>
</g>
<defs>
<clipPath id="clip0_21_53">
<rect width="256" height="256" fill="white"/>
</clipPath>
</defs>
</svg>
