<svg viewBox="0 0 36 36" fill="none" xmlns="http://www.w3.org/2000/svg">
<path d="M34 18C34 14.8355 33.0616 11.7421 31.3035 9.11088C29.5454 6.4797 27.0466 4.42894 24.1229 3.21793C21.1993 2.00693 17.9823 1.69008 14.8786 2.30744C11.7749 2.92481 8.92393 4.44866 6.68629 6.6863C4.44865 8.92394 2.9248 11.7749 2.30743 14.8786C1.69007 17.9823 2.00692 21.1993 3.21793 24.1229C4.42893 27.0466 6.47969 29.5454 9.11087 31.3035C11.7421 33.0616 14.8355 34 18 34C22.2435 34 26.3131 32.3143 29.3137 29.3137C32.3143 26.3131 34 22.2435 34 18ZM18.43 26C18.1686 25.7328 18.0222 25.3738 18.0222 25C18.0222 24.6262 18.1686 24.2672 18.43 24L23 19.4L8.86 19.4C8.4887 19.4 8.1326 19.2525 7.87005 18.99C7.6075 18.7274 7.46 18.3713 7.46 18C7.46 17.6287 7.6075 17.2726 7.87005 17.0101C8.1326 16.7475 8.4887 16.6 8.86 16.6L22.86 16.6L18.43 12.17C18.1648 11.9048 18.0158 11.5451 18.0158 11.17C18.0158 10.7949 18.1648 10.4352 18.43 10.17C18.6952 9.90479 19.0549 9.75579 19.43 9.75579C19.8051 9.75579 20.1648 9.90479 20.43 10.17L28.3 18.08L20.41 26C20.28 26.13 20.1257 26.2332 19.9558 26.3035C19.7859 26.3739 19.6039 26.4101 19.42 26.4101C19.2361 26.4101 19.0541 26.3739 18.8842 26.3035C18.7143 26.2332 18.56 26.13 18.43 26Z" fill="#66757F"/>
</svg>
