<svg viewBox="0 0 36 36" fill="none" xmlns="http://www.w3.org/2000/svg">
<path d="M2 18C2 21.1645 2.93838 24.2579 4.69649 26.8891C6.45459 29.5203 8.95345 31.5711 11.8771 32.7821C14.8007 33.9931 18.0177 34.3099 21.1214 33.6926C24.2251 33.0752 27.0761 31.5513 29.3137 29.3137C31.5513 27.0761 33.0752 24.2251 33.6926 21.1214C34.3099 18.0177 33.9931 14.8007 32.7821 11.8771C31.5711 8.95344 29.5203 6.45458 26.8891 4.69648C24.2579 2.93838 21.1645 1.99999 18 1.99999C13.7565 1.99999 9.68687 3.6857 6.68629 6.68628C3.68571 9.68686 2 13.7565 2 18ZM17.57 9.99999C17.8314 10.2672 17.9778 10.6262 17.9778 11C17.9778 11.3738 17.8314 11.7328 17.57 12L13 16.6L27.14 16.6C27.5113 16.6 27.8674 16.7475 28.1299 17.01C28.3925 17.2726 28.54 17.6287 28.54 18C28.54 18.3713 28.3925 18.7274 28.1299 18.9899C27.8674 19.2525 27.5113 19.4 27.14 19.4L13.14 19.4L17.57 23.83C17.8352 24.0952 17.9842 24.4549 17.9842 24.83C17.9842 25.2051 17.8352 25.5648 17.57 25.83C17.3048 26.0952 16.9451 26.2442 16.57 26.2442C16.1949 26.2442 15.8352 26.0952 15.57 25.83L7.7 17.92L15.59 9.99999C15.72 9.86998 15.8743 9.76684 16.0442 9.69647C16.2141 9.62611 16.3961 9.58989 16.58 9.58989C16.7639 9.58989 16.9459 9.62611 17.1158 9.69647C17.2857 9.76684 17.44 9.86998 17.57 9.99999Z" fill="#66757F"/>
</svg>
