<svg viewBox="0 0 48 48" fill="none" xmlns="http://www.w3.org/2000/svg">
<path fill-rule="evenodd" clip-rule="evenodd" d="M24 3C35.5969 3 45 12.4031 45 24C45 35.5969 35.5969 45 24 45C12.4031 45 3 35.5969 3 24C3 12.4031 12.4031 3 24 3ZM29.9974 15.8825C29.9963 15.8828 29.9954 15.8833 29.9935 15.8852L24 21.8787L18.0066 15.8852C18.0046 15.8833 18.0037 15.8828 18.0026 15.8825C18.0016 15.8821 18.0004 15.8821 17.9993 15.8825C17.9983 15.8828 17.9974 15.8833 17.9955 15.8852L15.8852 17.9955C15.8833 17.9974 15.8828 17.9983 15.8825 17.9994C15.8821 18.0005 15.8821 18.0016 15.8825 18.0027L15.8829 18.0037C15.8836 18.0047 15.8844 18.0057 15.8852 18.0065L21.8787 24L15.8852 29.9935C15.8833 29.9954 15.8828 29.9963 15.8825 29.9974C15.8821 29.9985 15.8821 29.9996 15.8825 30.0007C15.8828 30.0017 15.8833 30.0026 15.8852 30.0045L17.9955 32.1149C17.9974 32.1167 17.9983 32.1172 17.9994 32.1176C18.0005 32.1179 18.0016 32.1179 18.0027 32.1176C18.0037 32.1172 18.0046 32.1167 18.0065 32.1148L24 26.1213L29.9935 32.1148C29.9954 32.1167 29.9963 32.1172 29.9974 32.1175C29.9985 32.1179 29.9996 32.1179 30.0007 32.1175C30.0017 32.1172 30.0026 32.1167 30.0045 32.1148L32.1149 30.0045C32.1167 30.0026 32.1172 30.0017 32.1176 30.0006C32.1179 29.9995 32.1179 29.9984 32.1176 29.9973L32.1171 29.9963C32.1165 29.9953 32.1157 29.9943 32.1148 29.9935L26.1213 24L32.1148 18.0066C32.1167 18.0046 32.1172 18.0037 32.1175 18.0026C32.1179 18.0016 32.1179 18.0004 32.1175 17.9993C32.1172 17.9983 32.1167 17.9974 32.1148 17.9955L30.0045 15.8852C30.0035 15.884 30.0021 15.883 30.0006 15.8825C29.9995 15.8821 29.9984 15.8821 29.9974 15.8825Z" fill="#292F33"/>
</svg>
