<svg viewBox="0 0 256 256" fill="none" xmlns="http://www.w3.org/2000/svg">
<path d="M244.24 75.76L212.24 43.76C211.103 42.7002 209.598 42.1232 208.044 42.1506C206.489 42.178 205.006 42.8077 203.907 43.907C202.808 45.0063 202.178 46.4894 202.151 48.0438C202.123 49.5982 202.7 51.1026 203.76 52.24L225.51 74H208C160 74 148.56 101.46 138.46 125.69C129.03 148.33 120.8 168.02 85.46 169.85C83.9038 160.42 78.8514 151.923 71.3099 146.052C63.7684 140.182 54.2916 137.368 44.7683 138.172C35.245 138.977 26.3745 143.341 19.9248 150.393C13.4751 157.446 9.91985 166.67 9.96764 176.228C10.0154 185.785 13.6627 194.973 20.1826 201.961C26.7025 208.949 35.6162 213.224 45.1471 213.933C54.678 214.642 64.1262 211.734 71.6086 205.788C79.091 199.842 84.0582 191.295 85.52 181.85C128.86 179.79 139.81 153.56 149.52 130.3C159.44 106.53 168 86 208 86H225.51L203.76 107.76C203.171 108.309 202.698 108.972 202.37 109.708C202.042 110.444 201.866 111.238 201.851 112.044C201.837 112.849 201.985 113.65 202.287 114.397C202.589 115.144 203.038 115.823 203.608 116.392C204.177 116.962 204.856 117.411 205.603 117.713C206.35 118.015 207.151 118.163 207.956 118.149C208.762 118.135 209.556 117.958 210.292 117.63C211.028 117.302 211.691 116.829 212.24 116.24L244.24 84.24C245.364 83.115 245.995 81.59 245.995 80C245.995 78.41 245.364 76.885 244.24 75.76ZM48 202C42.8577 202 37.8309 200.475 33.5552 197.618C29.2795 194.761 25.947 190.701 23.9791 185.95C22.0113 181.199 21.4964 175.971 22.4996 170.928C23.5028 165.884 25.9791 161.251 29.6152 157.615C33.2514 153.979 37.8842 151.503 42.9277 150.5C47.9712 149.496 53.1989 150.011 57.9498 151.979C62.7007 153.947 66.7613 157.279 69.6182 161.555C72.4751 165.831 74 170.858 74 176C74 182.896 71.2607 189.509 66.3848 194.385C61.5088 199.261 54.8956 202 48 202Z" fill="#00B5D1"/>
</svg>
