<svg viewBox="0 0 24 24" fill="none" xmlns="http://www.w3.org/2000/svg">
<path d="M13 17C13 16.8689 12.9742 16.7389 12.924 16.6177C12.8738 16.4965 12.8002 16.3864 12.7074 16.2936C12.6147 16.2009 12.5045 16.1273 12.3833 16.0771C12.2621 16.0269 12.1322 16.001 12.001 16.001C11.8698 16.001 11.7399 16.0269 11.6187 16.0771C11.4975 16.1273 11.3874 16.2009 11.2946 16.2936C11.2019 16.3864 11.1283 16.4965 11.0781 16.6177C11.0279 16.7389 11.002 16.8689 11.002 17C11.0102 17.2594 11.119 17.5054 11.3054 17.6859C11.4917 17.8665 11.741 17.9674 12.0005 17.9674C12.26 17.9674 12.5093 17.8665 12.6957 17.6859C12.882 17.5054 12.9908 17.2594 12.999 17M12.739 9.14705C12.7131 8.95871 12.6166 8.78724 12.4691 8.66732C12.3216 8.5474 12.1341 8.48797 11.9444 8.50105C11.7547 8.51414 11.5771 8.59876 11.4475 8.7378C11.3178 8.87685 11.2458 9.05994 11.246 9.25005L11.25 13.751L11.257 13.853C11.2829 14.0414 11.3794 14.2129 11.5269 14.3328C11.6744 14.4527 11.862 14.5121 12.0516 14.499C12.2413 14.486 12.4189 14.4013 12.5486 14.2623C12.6782 14.1232 12.7502 13.9402 12.75 13.75L12.746 9.24805L12.739 9.14705ZM13.969 3.65905C13.112 2.11105 10.887 2.11105 10.031 3.65905L2.28602 17.66C1.45602 19.16 2.54102 21 4.25602 21H19.746C21.46 21 22.545 19.16 21.715 17.66L13.969 3.65905ZM11.343 4.38505C11.4078 4.2677 11.5029 4.16987 11.6184 4.10175C11.7339 4.03362 11.8655 3.99769 11.9995 3.99769C12.1336 3.99769 12.2652 4.03362 12.3807 4.10175C12.4961 4.16987 12.5912 4.2677 12.656 4.38505L20.402 18.387C20.4652 18.5013 20.4975 18.63 20.4957 18.7606C20.4938 18.8911 20.458 19.0189 20.3916 19.1313C20.3252 19.2437 20.2307 19.3369 20.1173 19.4015C20.0039 19.4662 19.8756 19.5002 19.745 19.5H4.25602C4.12548 19.5002 3.99717 19.4662 3.88377 19.4015C3.77037 19.3369 3.67582 19.2437 3.60946 19.1313C3.5431 19.0189 3.50723 18.8911 3.5054 18.7606C3.50357 18.63 3.53584 18.5013 3.59902 18.387L11.343 4.38505Z" fill="#00B5D1"/>
</svg>
